<svg xmlns="http://www.w3.org/2000/svg" width="192" height="158" viewBox="0 0 192 158">
<g transform="translate(10,10)">
<rect x="0" y="0" width="18" height="18" rx="4" ry="4" fill="#4a4a4a"/>
<rect x="22" y="0" width="18" height="18" rx="4" ry="4" fill="#4a4a4a"/>
<rect x="44" y="0" width="18" height="18" rx="4" ry="4" fill="#5a5a5a"/>
<rect x="66" y="0" width="18" height="18" rx="4" ry="4" fill="#5a5a5a"/>
<rect x="88" y="0" width="18" height="18" rx="4" ry="4" fill="#4a4a4a"/>
<rect x="110" y="0" width="18" height="18" rx="4" ry="4" fill="#3b3b3b"/>
<rect x="132" y="0" width="18" height="18" rx="4" ry="4" fill="#3b3b3b"/>
<rect x="154" y="0" width="18" height="18" rx="4" ry="4" fill="#2d2d2d"/>
<rect x="0" y="22" width="18" height="18" rx="4" ry="4" fill="#4a4a4a"/>
<rect x="22" y="22" width="18" height="18" rx="4" ry="4" fill="#5a5a5a"/>
<rect x="44" y="22" width="18" height="18" rx="4" ry="4" fill="#5a5a5a"/>
<rect x="66" y="22" width="18" height="18" rx="4" ry="4" fill="#4a4a4a"/>
<rect x="88" y="22" width="18" height="18" rx="4" ry="4" fill="#4a4a4a"/>
<rect x="110" y="22" width="18" height="18" rx="4" ry="4" fill="#3b3b3b"/>
<rect x="132" y="22" width="18" height="18" rx="4" ry="4" fill="#3b3b3b"/>
<rect x="154" y="22" width="18" height="18" rx="4" ry="4" fill="#2d2d2d"/>
<rect x="0" y="44" width="18" height="18" rx="4" ry="4" fill="#3b3b3b"/>
<rect x="22" y="44" width="18" height="18" rx="4" ry="4" fill="#4a4a4a"/>
<rect x="44" y="44" width="18" height="18" rx="4" ry="4" fill="#4a4a4a"/>
<rect x="66" y="44" width="18" height="18" rx="4" ry="4" fill="#4a4a4a"/>
<rect x="88" y="44" width="18" height="18" rx="4" ry="4" fill="#3b3b3b"/>
<rect x="110" y="44" width="18" height="18" rx="4" ry="4" fill="#3b3b3b"/>
<rect x="132" y="44" width="18" height="18" rx="4" ry="4" fill="#2d2d2d"/>
<rect x="154" y="44" width="18" height="18" rx="4" ry="4" fill="#2d2d2d"/>
<rect x="0" y="66" width="18" height="18" rx="4" ry="4" fill="#3b3b3b"/>
<rect x="22" y="66" width="18" height="18" rx="4" ry="4" fill="#3b3b3b"/>
<rect x="44" y="66" width="18" height="18" rx="4" ry="4" fill="#4a4a4a"/>
<rect x="66" y="66" width="18" height="18" rx="4" ry="4" fill="#4a4a4a"/>
<rect x="88" y="66" width="18" height="18" rx="4" ry="4" fill="#3b3b3b"/>
<rect x="110" y="66" width="18" height="18" rx="4" ry="4" fill="#2d2d2d"/>
<rect x="132" y="66" width="18" height="18" rx="4" ry="4" fill="#2d2d2d"/>
<rect x="154" y="66" width="18" height="18" rx="4" ry="4" fill="#2d2d2d"/>
<rect x="0" y="88" width="18" height="18" rx="4" ry="4" fill="#2d2d2d"/>
<rect x="22" y="88" width="18" height="18" rx="4" ry="4" fill="#3b3b3b"/>
<rect x="44" y="88" width="18" height="18" rx="4" ry="4" fill="#3b3b3b"/>
<rect x="66" y="88" width="18" height="18" rx="4" ry="4" fill="#3b3b3b"/>
<rect x="88" y="88" width="18" height="18" rx="4" ry="4" fill="#2d2d2d"/>
<rect x="110" y="88" width="18" height="18" rx="4" ry="4" fill="#2d2d2d"/>
<rect x="132" y="88" width="18" height="18" rx="4" ry="4" fill="#2d2d2d"/>
<rect x="154" y="88" width="18" height="18" rx="4" ry="4" fill="#2d2d2d"/>
<rect x="0" y="110" width="18" height="18" rx="4" ry="4" fill="#2d2d2d"/>
<rect x="22" y="110" width="18" height="18" rx="4" ry="4" fill="#2d2d2d"/>
<rect x="44" y="110" width="18" height="18" rx="4" ry="4" fill="#3b3b3b"/>
<rect x="66" y="110" width="18" height="18" rx="4" ry="4" fill="#3b3b3b"/>
<rect x="88" y="110" width="18" height="18" rx="4" ry="4" fill="#2d2d2d"/>
<rect x="110" y="110" width="18" height="18" rx="4" ry="4" fill="#2d2d2d"/>
<rect x="132" y="110" width="18" height="18" rx="4" ry="4" fill="#2d2d2d"/>
<rect x="154" y="110" width="18" height="18" rx="4" ry="4" fill="#2d2d2d"/>
</g>
</svg>